<svg width="24" height="24" viewBox="0 0 24 24" fill="none" xmlns="http://www.w3.org/2000/svg">
<path d="M12.4029 6.04688C9.75938 6.04688 7.6084 8.19435 7.6084 10.8336C7.6084 13.4728 9.75938 15.6202 12.4029 15.6202C15.0465 15.6202 17.1975 13.4728 17.1975 10.8336C17.1975 8.19435 15.0465 6.04688 12.4029 6.04688Z" fill="#060C34"/>
<path d="M2.98291 15.0615C6.35822 15.0615 9.10205 17.8021 9.10205 21.1699C9.10205 21.1834 9.10198 21.1979 9.1001 21.2275C9.09845 21.2534 9.09523 21.2978 9.09521 21.3457V21.3984C6.7413 20.6658 4.79156 19.0994 3.57275 17.0244L3.33252 16.5908L3.13037 16.1797C2.96571 15.8238 2.82376 15.454 2.70068 15.0732L2.76807 15.0713C2.89024 15.0667 2.90985 15.0615 2.98291 15.0615ZM21.4058 14.626H21.5474C20.8495 17.168 19.1217 19.3404 16.8413 20.6172C16.3545 20.8884 15.8444 21.1165 15.3179 21.2998L15.313 21.2256C15.3001 21.056 15.2905 20.8939 15.2905 20.7334C15.2908 17.3656 18.0338 14.626 21.4058 14.626ZM8.99951 2.70117C8.50717 5.51366 6.084 7.62194 3.2124 7.72949C4.33974 5.41622 6.32294 3.64328 8.7417 2.78516L8.74365 2.78418C8.82628 2.75457 8.9115 2.7291 8.99951 2.70117ZM15.6313 2.88379L15.6353 2.88574C17.6881 3.68158 19.4198 5.15818 20.5347 7.05469L20.5942 7.15527C20.6997 7.33685 20.798 7.52282 20.8911 7.71191C18.1674 7.48719 15.9215 5.47565 15.4058 2.79785C15.4806 2.82517 15.5559 2.85381 15.6313 2.88379Z" fill="#060C34" stroke="#060C34"/>
</svg>
