<svg width="30" height="30" viewBox="0 0 30 30" fill="none" xmlns="http://www.w3.org/2000/svg">
<rect width="30" height="30" rx="15" fill="#FFE941"/>
<path d="M11.6364 10.8584C11.9744 11.9384 12.6264 12.9504 13.2634 13.9024L13.4134 14.1244C13.5667 14.3524 13.7157 14.5768 13.8604 14.7974C13.8604 14.7974 13.3034 14.3674 13.0524 14.1714C11.9274 13.2914 11.1274 12.6654 10.1144 12.4664C9.87915 12.4207 9.64003 12.3979 9.40039 12.3984C8.33952 12.3984 7.32211 12.8199 6.57196 13.57C5.82182 14.3202 5.40039 15.3376 5.40039 16.3984C5.40039 17.4593 5.82182 18.4767 6.57196 19.2269C7.32211 19.977 8.33952 20.3984 9.40039 20.3984C10.0764 20.3984 10.7534 20.2154 11.4394 19.9184C12.1224 19.6234 12.8154 19.2154 13.5294 18.7634C13.5124 19.7344 13.3954 20.5434 13.1994 21.2844C12.9524 22.2144 12.5814 23.0394 12.1294 23.9524C12.0528 24.1043 12.0163 24.2732 12.0234 24.4431C12.0305 24.613 12.081 24.7783 12.17 24.9232C12.259 25.0681 12.3835 25.1878 12.5319 25.271C12.6802 25.3542 12.8473 25.3981 13.0174 25.3984H17.7814C18.5244 25.3984 19.0014 24.6184 18.6714 23.9524C18.2184 23.0394 17.8474 22.2144 17.6014 21.2844C17.3877 20.461 17.2769 19.6142 17.2714 18.7634C17.9844 19.2154 18.6774 19.6234 19.3614 19.9184C20.0464 20.2154 20.7234 20.3984 21.3994 20.3984C22.4603 20.3984 23.4777 19.977 24.2278 19.2269C24.978 18.4767 25.3994 17.4593 25.3994 16.3984C25.3994 15.3376 24.978 14.3202 24.2278 13.57C23.4777 12.8199 22.4603 12.3984 21.3994 12.3984C21.1334 12.3984 20.8827 12.4234 20.6474 12.4734C19.6524 12.6804 18.8584 13.3024 17.7474 14.1714C17.4964 14.3684 16.9394 14.7974 16.9394 14.7974L17.1724 14.4404L17.1744 14.4384V14.4374L17.5294 13.8934C18.2034 12.8504 18.8094 11.8534 19.1394 10.8694C19.3034 10.3764 19.3994 9.88744 19.3994 9.39844C19.3994 8.33757 18.978 7.32016 18.2278 6.57001C17.4777 5.81986 16.4603 5.39844 15.3994 5.39844C14.3385 5.39844 13.3211 5.81986 12.571 6.57001C11.8208 7.32016 11.3994 8.33757 11.3994 9.39844C11.3994 9.89844 11.4874 10.3854 11.6354 10.8584M16.8574 11.1184C16.5074 11.8004 16.0494 12.5014 15.5014 13.3414L15.4004 13.4984L15.0204 12.9284C14.6394 12.3624 14.3004 11.8584 13.9984 11.2984C13.5884 10.5394 13.4004 9.93244 13.4004 9.39844C13.4004 8.868 13.6111 8.3593 13.9862 7.98422C14.3612 7.60915 14.87 7.39844 15.4004 7.39844C15.9308 7.39844 16.4395 7.60915 16.8146 7.98422C17.1897 8.3593 17.4004 8.868 17.4004 9.39844C17.4004 9.81244 17.2534 10.3524 16.8584 11.1184M13.8964 16.7984C14.1845 16.7931 14.4681 16.7255 14.7277 16.6004C14.9873 16.4753 15.2167 16.2955 15.4004 16.0734C15.5842 16.2951 15.8138 16.4745 16.0734 16.5993C16.333 16.7241 16.6164 16.7913 16.9044 16.7964C16.5663 16.8597 16.2503 17.0091 15.9869 17.2302C15.7234 17.4513 15.5214 17.7365 15.4004 18.0584C15.2792 17.7367 15.0772 17.4516 14.8137 17.2308C14.5503 17.0099 14.2343 16.8616 13.8964 16.7984ZM14.5864 23.3984C14.9534 22.5094 15.2434 21.5764 15.4004 20.4714C15.5574 21.5764 15.8474 22.5094 16.2154 23.3984H14.5864ZM17.3094 16.7634C17.8534 16.6614 18.3024 16.2964 18.7304 15.9474C18.8151 15.8788 18.8984 15.8121 18.9804 15.7474C20.4604 14.5884 20.8164 14.3984 21.4004 14.3984C21.9308 14.3984 22.4395 14.6092 22.8146 14.9842C23.1897 15.3593 23.4004 15.868 23.4004 16.3984C23.4004 16.9289 23.1897 17.4376 22.8146 17.8127C22.4395 18.1877 21.9308 18.3984 21.4004 18.3984C20.7014 18.3984 19.8064 18.0024 18.3444 17.0744C18.0345 16.8778 17.6764 16.7702 17.3094 16.7634ZM9.40039 14.3984C9.98539 14.3984 10.3404 14.5884 11.8204 15.7464C11.9031 15.8118 11.9864 15.8788 12.0704 15.9474C12.4984 16.2964 12.9474 16.6614 13.4924 16.7634C13.1314 16.7694 12.7724 16.8734 12.4564 17.0734C10.9944 18.0034 10.1004 18.3984 9.40039 18.3984C8.86996 18.3984 8.36125 18.1877 7.98618 17.8127C7.6111 17.4376 7.40039 16.9289 7.40039 16.3984C7.40039 15.868 7.6111 15.3593 7.98618 14.9842C8.36125 14.6092 8.86996 14.3984 9.40039 14.3984Z" fill="#060C34"/>
</svg>
