<svg width="10" height="10" viewBox="0 0 10 10" fill="none" xmlns="http://www.w3.org/2000/svg">
<path d="M3.30799 1.02235C3.19082 1.13955 3.125 1.29849 3.125 1.46422C3.125 1.62995 3.19082 1.78889 3.30799 1.9061L6.40174 4.99985L3.30799 8.0936C3.19414 8.21147 3.13115 8.36935 3.13257 8.53322C3.13399 8.6971 3.19972 8.85385 3.3156 8.96973C3.43148 9.08561 3.58824 9.15134 3.75212 9.15277C3.91599 9.15419 4.07386 9.0912 4.19174 8.97735L7.72737 5.44172C7.84454 5.32452 7.91036 5.16557 7.91036 4.99985C7.91036 4.83412 7.84454 4.67518 7.72737 4.55797L4.19174 1.02235C4.07454 0.905178 3.91559 0.839355 3.74987 0.839355C3.58414 0.839355 3.4252 0.905178 3.30799 1.02235Z" fill="#991433"/>
</svg>
