<svg width="18" height="19" viewBox="0 0 18 19" fill="none" xmlns="http://www.w3.org/2000/svg">
<path d="M12.075 10.4746L10.9875 9.38711C11.1 8.79961 10.9313 8.24961 10.4813 7.73711C10.0312 7.22461 9.45 7.02461 8.7375 7.13711L7.65 6.04961C7.8625 5.94961 8.07813 5.87461 8.29688 5.82461C8.51563 5.77461 8.75 5.74961 9 5.74961C9.9375 5.74961 10.7344 6.07773 11.3906 6.73398C12.0469 7.39023 12.375 8.18711 12.375 9.12461C12.375 9.37461 12.35 9.60899 12.3 9.82774C12.25 10.0465 12.175 10.2621 12.075 10.4746ZM14.475 12.8371L13.3875 11.7871C13.8625 11.4246 14.2844 11.0277 14.6531 10.5965C15.0219 10.1652 15.3375 9.67461 15.6 9.12461C14.975 7.86211 14.0781 6.85898 12.9094 6.11523C11.7406 5.37148 10.4375 4.99961 9 4.99961C8.6375 4.99961 8.28125 5.02461 7.93125 5.07461C7.58125 5.12461 7.2375 5.19961 6.9 5.29961L5.7375 4.13711C6.25 3.92461 6.775 3.76523 7.3125 3.65898C7.85 3.55273 8.4125 3.49961 9 3.49961C10.8875 3.49961 12.5688 4.02148 14.0438 5.06523C15.5188 6.10898 16.5875 7.46211 17.25 9.12461C16.9625 9.86211 16.5844 10.5465 16.1156 11.1777C15.6469 11.809 15.1 12.3621 14.475 12.8371ZM14.85 17.4496L11.7 14.3371C11.2625 14.4746 10.8219 14.5777 10.3781 14.6465C9.93438 14.7152 9.475 14.7496 9 14.7496C7.1125 14.7496 5.43125 14.2277 3.95625 13.184C2.48125 12.1402 1.4125 10.7871 0.75 9.12461C1.0125 8.46211 1.34375 7.84649 1.74375 7.27774C2.14375 6.70898 2.6 6.19961 3.1125 5.74961L1.05 3.64961L2.1 2.59961L15.9 16.3996L14.85 17.4496ZM4.1625 6.79961C3.8 7.12461 3.46875 7.48086 3.16875 7.86836C2.86875 8.25586 2.6125 8.67461 2.4 9.12461C3.025 10.3871 3.92188 11.3902 5.09063 12.134C6.25938 12.8777 7.5625 13.2496 9 13.2496C9.25 13.2496 9.49375 13.234 9.73125 13.2027C9.96875 13.1715 10.2125 13.1371 10.4625 13.0996L9.7875 12.3871C9.65 12.4246 9.51875 12.4527 9.39375 12.4715C9.26875 12.4902 9.1375 12.4996 9 12.4996C8.0625 12.4996 7.26563 12.1715 6.60938 11.5152C5.95312 10.859 5.625 10.0621 5.625 9.12461C5.625 8.98711 5.63438 8.85586 5.65313 8.73086C5.67188 8.60586 5.7 8.47461 5.7375 8.33711L4.1625 6.79961Z" fill="#B0B0B0"/>
</svg>
