<svg width="16" height="16" viewBox="0 0 16 16" fill="none" xmlns="http://www.w3.org/2000/svg">
<path d="M14.6668 5.02295V11.3329C14.6669 11.8431 14.4719 12.334 14.122 12.7051C13.772 13.0763 13.2934 13.2997 12.7842 13.3296L12.6668 13.3329H3.3335C2.82336 13.333 2.33249 13.1381 1.96132 12.7881C1.59016 12.4381 1.36676 11.9595 1.33683 11.4503L1.3335 11.3329V5.02295L7.63016 9.22095L7.7075 9.26495C7.79863 9.30948 7.89873 9.33262 8.00016 9.33262C8.1016 9.33262 8.20169 9.30948 8.29283 9.26495L8.37016 9.22095L14.6668 5.02295Z" fill="#6D6D6D"/>
<path d="M12.667 2.6665C13.387 2.6665 14.0184 3.0465 14.3704 3.61784L8.00037 7.8645L1.63037 3.61784C1.79757 3.34639 2.02723 3.11884 2.30022 2.95416C2.57321 2.78949 2.88161 2.69246 3.1997 2.67117L3.3337 2.6665H12.667Z" fill="#4F4F4F"/>
</svg>
