<svg xmlns="http://www.w3.org/2000/svg" viewBox="0 0 400 400">
  <defs>
    <radialGradient id="bg2" cx="50%" cy="35%" r="75%">
      <stop offset="0%" stop-color="#148f77"/>
      <stop offset="100%" stop-color="#0b5345"/>
    </radialGradient>
  </defs>
  <rect width="400" height="400" fill="url(#bg2)"/>
  <g transform="translate(200,200)">
    <circle cx="-76" cy="-34" r="8.5" fill="#ffffff" opacity="0.28"/><circle cx="-72" cy="105" r="5.7" fill="#ffffff" opacity="0.25"/><circle cx="-150" cy="46" r="6.4" fill="#ffffff" opacity="0.24"/><circle cx="101" cy="-29" r="8.6" fill="#ffffff" opacity="0.31"/><circle cx="17" cy="-157" r="5.9" fill="#ffffff" opacity="0.39"/><circle cx="-181" cy="-90" r="3.8" fill="#ffffff" opacity="0.19"/><circle cx="163" cy="178" r="3.1" fill="#ffffff" opacity="0.28"/><circle cx="-113" cy="-139" r="8.4" fill="#ffffff" opacity="0.25"/><circle cx="-153" cy="49" r="7.4" fill="#ffffff" opacity="0.38"/><circle cx="-39" cy="15" r="8.5" fill="#ffffff" opacity="0.21"/>
    <g transform="translate(-34,-135) rotate(-18) scale(1.12)" opacity="0.92"><path d="M-60,0 C-40,-30 0,-35 30,-15 L55,-25 L45,0 L55,25 L30,15 C0,35 -40,30 -60,0 Z" fill="#f9ca24"/><circle cx="-38" cy="-4" r="3" fill="#0a0a0a"/></g><g transform="translate(-60,-18) rotate(-11) scale(0.71)" opacity="0.92"><path d="M-60,0 C-40,-30 0,-35 30,-15 L55,-25 L45,0 L55,25 L30,15 C0,35 -40,30 -60,0 Z" fill="#f0932b"/><circle cx="-38" cy="-4" r="3" fill="#0a0a0a"/></g><g transform="translate(48,-18) rotate(9) scale(0.79)" opacity="0.92"><path d="M-60,0 C-40,-30 0,-35 30,-15 L55,-25 L45,0 L55,25 L30,15 C0,35 -40,30 -60,0 Z" fill="#f9ca24"/><circle cx="-38" cy="-4" r="3" fill="#0a0a0a"/></g><g transform="translate(42,3) rotate(2) scale(1.01)" opacity="0.92"><path d="M-60,0 C-40,-30 0,-35 30,-15 L55,-25 L45,0 L55,25 L30,15 C0,35 -40,30 -60,0 Z" fill="#f0932b"/><circle cx="-38" cy="-4" r="3" fill="#0a0a0a"/></g><g transform="translate(-23,-35) rotate(0) scale(1.4)" opacity="0.92"><path d="M-55,0 C-30,-25 10,-30 40,-10 L60,-5 L60,5 L40,10 C10,30 -30,25 -55,0 Z" fill="#f9ca24"/><circle cx="-35" cy="-4" r="3" fill="#0a0a0a"/></g>
  </g>
  <rect width="400" height="400" fill="none" stroke="#f0932b" stroke-width="0" />
</svg>